<svg width="24" height="24" viewBox="0 0 24 24" fill="none" xmlns="http://www.w3.org/2000/svg">
<path opacity="0.5" d="M22 5C22 4.80109 21.921 4.61032 21.7803 4.46967C21.6397 4.32902 21.4489 4.25 21.25 4.25C21.0511 4.25 20.8603 4.32902 20.7197 4.46967C20.579 4.61032 20.5 4.80109 20.5 5V19C20.5 19.1989 20.579 19.3897 20.7197 19.5303C20.8603 19.671 21.0511 19.75 21.25 19.75C21.4489 19.75 21.6397 19.671 21.7803 19.5303C21.921 19.3897 22 19.1989 22 19V5Z" fill="#E83A4B"/>
<path d="M15.91 14.6472C17.697 13.4932 17.697 10.5072 15.91 9.35318L5.12 2.38518C3.384 1.26418 1.24999 2.72418 1.24999 5.03318V18.9672C1.24999 21.2772 3.384 22.7362 5.12 21.6152L15.91 14.6472Z" fill="#E83A4B"/>
</svg>
