<svg width="24" height="24" viewBox="0 0 24 24" fill="none" xmlns="http://www.w3.org/2000/svg">
<path opacity="0.5" d="M2 5C2 4.80109 2.07902 4.61032 2.21967 4.46967C2.36032 4.32902 2.55109 4.25 2.75 4.25C2.94891 4.25 3.13968 4.32902 3.28033 4.46967C3.42098 4.61032 3.5 4.80109 3.5 5V19C3.5 19.1989 3.42098 19.3897 3.28033 19.5303C3.13968 19.671 2.94891 19.75 2.75 19.75C2.55109 19.75 2.36032 19.671 2.21967 19.5303C2.07902 19.3897 2 19.1989 2 19V5Z" fill="#E83A4B"/>
<path d="M8.09001 14.6472C6.30301 13.4932 6.30301 10.5072 8.09001 9.35318L18.88 2.38518C20.616 1.26418 22.75 2.72418 22.75 5.03318V18.9672C22.75 21.2772 20.616 22.7362 18.88 21.6152L8.09001 14.6472Z" fill="#E83A4B"/>
</svg>
